<svg id="Logo" xmlns="http://www.w3.org/2000/svg" viewBox="0 0 335.57 75.92"><defs><style>.cls-1{fill:#fff;}</style></defs><title>logo</title><path class="cls-1" d="M852.41,553.62q5.61-3.37,7-7.64,1.57-4,3.14-19.09,2.24-19.54,4.72-21.11a6,6,0,0,1,3.59-1.35q4.26,0,6.06,8.54a44,44,0,0,1,.9,9.43,93,93,0,0,1-.9,12.13q-3.15,23.81-13.93,30.32-8.09,4.94-15.5,2.92t-10.78-10.11q-0.9-2-2.7-6.29-1.57,1.8-6.06,7.19-8.31,9.43-18,11a13.84,13.84,0,0,1-3.37.45,14.05,14.05,0,0,1-11.68-5.84,18.43,18.43,0,0,1-3.14-8.76q-0.67-5.16-.67-21.56,0-18.19.45-21.79,0.67-3.59,3.59-4,4-.45,5.84,5.84,2,6.29,3.37,23.13,1.12,17.07,3.37,18,1.57,0.67,8.54-6.06a30.82,30.82,0,0,0,7.64-11.45q2.24-6.51,4.49-20.66,0.9-7,2-8.54t4.27-2q4.72-.45,6.51,3.14T845,526.9Q849.26,553.63,852.41,553.62Z" transform="translate(-791.09 -500.39)"/><path class="cls-1" d="M946.3,515.44q0,7.19-14.37,2.47-13.7-4.49-19.54,3.14-5.62,7.86-5.17,31.22,0.45,19.54-1.35,20.66a5.63,5.63,0,0,1-2.92.67,11.53,11.53,0,0,1-3.59-.67q-4.27-1.12-5.17-3.59-1.13-3.14-2.25-31.89-0.67-14.6-.67-21.34V512.3q0.45-4.94,2.47-5.84,2.92-1.12,6.51,1.8,3.14,2.7,4.72,1.12,1.8-1.8,7.41-4.27a23.44,23.44,0,0,1,11-2.7,32.08,32.08,0,0,1,10.11,1.8Q946.3,508.48,946.3,515.44Z" transform="translate(-791.09 -500.39)"/><path class="cls-1" d="M967.19,505.56q6.29-3.82,15.5-3.82a56.39,56.39,0,0,1,7,.45q14.15,2,16.62,8.09a16.39,16.39,0,0,1,.9,5.17q0,7-6.51,13.93-10.78,12.13-27.85,11-6.52-.22-7.64.45t-0.67,3.82q0.67,5.62,4.94,7.86,4,2.25,16.17,2.92,15.72,1.13,15.72,4.27,0,2-4,6.06-3.6,3.37-6.29,4a20.23,20.23,0,0,1-3.59.22q-3.15,0-7.86-.45-29.2-2-29.2-28.08a41.15,41.15,0,0,1,.45-5.84,50.48,50.48,0,0,1,5.84-17.74Q961.35,509.15,967.19,505.56Zm24.48,12.8q0-3.37-6.74-3.37a18.19,18.19,0,0,0-11.23,3.37,15,15,0,0,0-4.27,4.72,3,3,0,0,0-.67,1.8,2.15,2.15,0,0,0,.67,1.57q1.12,1.13,4.27,1.12,5.16,0,11.46-3.37Q991.67,520.83,991.67,518.36Z" transform="translate(-791.09 -500.39)"/><path class="cls-1" d="M1037.94,523.3q0,4,8.09,9.88a89,89,0,0,1,15,13q4.26,4.94,5.39,7.64a12.83,12.83,0,0,1,.9,5.17,15.36,15.36,0,0,1-.22,2.47q-0.9,14.82-20.66,14.82h-0.67q-12.8-.22-19.77-5.17-4.27-3.37-4.27-7a7.38,7.38,0,0,1,1.35-4.72q1.57-2.24,12.13.45,8.09,2.25,12.8,2t4.72-2.92q0-2-22.46-20.66-7.64-6.29-6.29-17.52,1.57-11.23,10.78-16.85a25.14,25.14,0,0,1,13-3.59h1.12q7.41,0.23,11.23,4.72,4,5.17,2.47,7.64t-8.31,1.35q-6.74-1.12-11.46,1.57Q1037.94,518.36,1037.94,523.3Z" transform="translate(-791.09 -500.39)"/><path class="cls-1" d="M1097.24,523.3q0,4,8.09,9.88a89,89,0,0,1,15,13q4.26,4.94,5.39,7.64a12.83,12.83,0,0,1,.9,5.17,15.36,15.36,0,0,1-.22,2.47q-0.9,14.82-20.66,14.82h-0.67q-12.8-.22-19.77-5.17-4.27-3.37-4.27-7a7.38,7.38,0,0,1,1.35-4.72q1.57-2.24,12.13.45,8.09,2.25,12.8,2t4.72-2.92q0-2-22.46-20.66-7.64-6.29-6.29-17.52,1.57-11.23,10.78-16.85a25.14,25.14,0,0,1,13-3.59h1.12q7.41,0.23,11.23,4.72,4,5.17,2.47,7.64t-8.31,1.35q-6.74-1.12-11.46,1.57Q1097.23,518.36,1097.24,523.3Z" transform="translate(-791.09 -500.39)"/></svg>